<?xml version="1.0" encoding="UTF-8"?>
<svg id="Layer_1" data-name="Layer 1" xmlns="http://www.w3.org/2000/svg" viewBox="0 0 1080 1080">
  <path d="M535.3,573.65c-.25,0-.5,0-.75-.02-7.99-.41-14.13-7.21-13.72-15.2.59-11.51,1.05-23.56.91-35.74-15.93-1.38-31.36-5.52-45.42-12.25-21.4-10.26-39.05-26.37-51.03-46.58-9.59-16.19-11.56-32.5-5.55-45.91,6.48-14.46,21.7-24.1,41.74-26.47,18.47-2.19,35.7,1.74,48.5,11.05,9.43,6.86,16.89,16.62,23.46,30.74,8.93,19.17,13.52,39.53,15.66,59.89,14.63-2.07,28.51-7.03,40.6-14.57,15.31-9.55,27.22-23.07,34.43-39.1,11.84-26.31,13.89-58.97,5.61-89.6-8.5-31.44-26.52-57.19-50.74-72.48-11.75-7.42-25.32-12.37-39.25-14.32-25.22-3.53-47.08,4.88-61.53,23.66-16.35,21.24-19.57,50.96-8.4,77.56,3.1,7.37-.37,15.86-7.75,18.96-7.37,3.09-15.86-.37-18.96-7.75-15.19-36.19-10.53-76.97,12.15-106.44,20.78-26.99,53.03-39.63,88.49-34.67,17.98,2.51,35.51,8.91,50.71,18.51,30.38,19.19,52.83,50.94,63.23,89.41,10,36.99,7.39,76.74-7.16,109.05-17.46,38.78-55.19,65.3-99.83,70.77.15,12.93-.33,25.62-.95,37.75-.39,7.74-6.79,13.74-14.45,13.74ZM471.44,419.83c-2.13,0-4.32.13-6.56.4-7.37.87-16.15,3.84-18.72,9.57-1.99,4.44-.48,11.66,4.04,19.29,9.18,15.49,22.17,27.34,38.63,35.23,9.66,4.63,20.2,7.68,31.13,9.07-1.96-16.64-5.8-32.94-12.77-47.9-4.42-9.49-8.94-15.7-14.24-19.55-5.51-4.01-12.99-6.11-21.51-6.11Z"/>
  <g>
    <path d="M257.7,778.16c0-42.33,20.49-68.48,52.31-68.48,26.15,0,37.75,17.53,42.06,38.02v-84.66h30.2v180.65h-30.2v-34.78c-4.31,20.22-15.37,37.75-41.52,37.75-32.35,0-52.85-26.15-52.85-68.48ZM322.14,822.11c21.03,0,29.93-14.02,29.93-35.59v-16.45c0-21.57-8.9-35.86-30.2-35.86-18.87,0-33.16,14.56-33.16,43.95s14.29,43.95,33.43,43.95Z"/>
    <path d="M385.51,778.16c0-40.98,25.88-68.48,63.63-68.48s64.17,27.5,64.17,68.48-25.88,68.21-64.17,68.21-63.63-27.5-63.63-68.21ZM482.57,778.16c0-30.47-13.48-43.41-33.16-43.41s-32.89,12.94-32.89,43.41,13.48,43.14,32.89,43.14,33.16-12.94,33.16-43.14Z"/>
    <path d="M563.73,843.68v-153.69h-55.27v-26.96h141.28v26.96h-55.54v153.69h-30.47Z"/>
    <path d="M619.81,778.16c0-41.25,25.61-68.48,62.55-68.48,39.37,0,61.2,26.15,61.2,62.55,0,4.85-.54,10.52-1.08,13.21h-93.83c1.62,23.46,15.37,36.13,36.13,36.13,22.92,0,33.16-11.86,38.02-22.92l18.6,19.41c-9.97,15.1-27.77,28.31-56.89,28.31-39.09,0-64.71-27.23-64.71-68.21ZM648.93,766.03h67.4c-2.16-20.76-14.02-32.08-33.97-32.08-18.6,0-31.01,10.78-33.43,32.08Z"/>
    <path d="M750.31,843.68v-180.65h30.2v180.65h-30.2Z"/>
    <path d="M792.1,843.68v-180.65h30.2v180.65h-30.2Z"/>
  </g>
</svg>